<svg xmlns="http://www.w3.org/2000/svg" viewBox="0 0 40 40"><defs><clipPath id="clip-path"><circle cx="20" cy="20" r="20" style="fill:none"/></clipPath><style>.cls-3{fill:#fff}.cls-4{fill:#b32335}.cls-6{fill:#fefefe}.cls-7{fill:#fefeff}</style></defs><g id="Capa_2" data-name="Capa 2"><g id="Capa_1-2" data-name="Capa 1" style="clip-path:url(#clip-path)"><path d="M-14.81 41.31h-.07V-1c0-.26.06-.31.31-.31h80.35c.1 0 .23-.08.3.06a.53.53 0 0 1-.34.11H-14c-.74 0-.67 0-.67.68V21c0 .58 0 .58.6.58h79.44a1.09 1.09 0 0 1 .71.1V25a.52.52 0 0 1-.38.11h-79.61c-.88 0-.79-.06-.79.8v1.89c0 .34 0 .38.39.39h79.64c.26 0 .52-.07.75.1v3.23a.52.52 0 0 1-.38.11h-79.61c-.88 0-.79-.06-.79.8v1.89c0 .34 0 .38.39.39h79.64c.26 0 .52-.07.75.1V38a.56.56 0 0 1-.38.1h-79.63c-.85 0-.77-.06-.77.75v1.95a.67.67 0 0 1-.11.51Z" class="cls-3"/><path d="M-14.81 41.31v-3c0-.21.05-.32.28-.28h80.61v3.09c0 .17 0 .24-.21.21h-80.68ZM66.08 34.78h-80.45c-.44 0-.44 0-.44-.44v-2.56c0-.22.05-.31.28-.28a2.43 2.43 0 0 0 .27 0h80.34ZM66.08 28.25a1.19 1.19 0 0 0-.46 0h-80c-.44 0-.44 0-.44-.44v-2.56c0-.22.06-.3.28-.27a.34.34 0 0 0 .1 0h80.52ZM17.55-1.23h48.53v3.3a.53.53 0 0 1-.34.11H18.27a1.39 1.39 0 0 1-.73-.08.62.62 0 0 1-.1-.42V-.81a.52.52 0 0 1 .11-.42ZM66.08 11.82v3.3a.53.53 0 0 1-.34.11H18.27a1.39 1.39 0 0 1-.73-.08.5.5 0 0 1-.1-.35v-2.64a.54.54 0 0 1 .09-.35.87.87 0 0 1 .55-.09h47.29a1.09 1.09 0 0 1 .71.1ZM66.08 5.29v3.3a.53.53 0 0 1-.34.11H18.27a1.39 1.39 0 0 1-.73-.08.5.5 0 0 1-.1-.35V5.63a.53.53 0 0 1 .09-.35.88.88 0 0 1 .55-.1h47.29c.24.01.49-.06.71.11Z" class="cls-4"/><path d="M17.56 15.12h48.52v3.3a.53.53 0 0 1-.34.11H18.27a1.39 1.39 0 0 1-.73-.08.67.67 0 0 1-.1-.45v-2.44a.51.51 0 0 1 .12-.44Z" class="cls-3"/><path d="M17.56 18.41h48.52v3.23H17.54a.6.6 0 0 1-.1-.41v-2.44a.46.46 0 0 1 .12-.38Z" class="cls-4"/><path d="M66.08 5.29H17.56a.45.45 0 0 1-.12-.4V2.43a.46.46 0 0 1 .12-.4h48.52ZM17.56 8.58h48.52v3.23H17.56a.46.46 0 0 1-.12-.4V8.95a.47.47 0 0 1 .12-.37Z" class="cls-3"/><path d="M17.56 8.58v13.08h-31.99c-.3 0-.39-.06-.39-.38V-.93c0-.29.08-.35.35-.35h32v9.86Z" style="fill:#3c3c6f"/><path d="M14.83 18.13c.18.3.13.68.35.8s.54 0 .84.1a3.08 3.08 0 0 1-.41.3.35.35 0 0 0-.18.54 3.17 3.17 0 0 1 .17.52c-.31-.13-.5-.47-.77-.45s-.46.29-.7.46a.84.84 0 0 1 .11-.44.44.44 0 0 0-.23-.69 3.62 3.62 0 0 1-.41-.3 5.18 5.18 0 0 1 .7 0 .28.28 0 0 0 .34-.26c.05-.17.12-.35.19-.58ZM8.25 19c.34 0 .68.07.87-.07s.22-.48.31-.74h.07c.08.67.44.94 1.15.72v.1a5.74 5.74 0 0 1-.5.36.27.27 0 0 0-.13.38c.08.19.13.38.22.65l-.34-.23c-.42-.3-.42-.3-.86 0l-.27.18v-.17c.21-.67.21-.67-.37-1.1ZM2.83 19C3.52 19 4 19 4 18.19c.12 0 .12 0 .14.08.24.69.24.69 1 .7h.24c-.21.15-.33.26-.47.34s-.35.31-.2.59a2.82 2.82 0 0 1 .16.49c-.3-.13-.5-.47-.76-.45s-.46.29-.71.46a.87.87 0 0 1 .05-.4.44.44 0 0 0-.23-.69 3.79 3.79 0 0 1-.39-.31ZM.2 16.74c.67.05 1.11-.13 1.11-.86h.09c.09.64.42 1 1.19.71a1.6 1.6 0 0 1-.54.47.28.28 0 0 0-.13.41c.08.18.12.38.21.65a5.63 5.63 0 0 1-.51-.38.32.32 0 0 0-.51 0 5.27 5.27 0 0 1-.52.37c.1-.27.15-.47.22-.65a.28.28 0 0 0-.13-.41 5.34 5.34 0 0 1-.48-.31ZM15.6 15.84c-.51-.46-1-.68-1.47.09a1.85 1.85 0 0 1 .17-.72.29.29 0 0 0-.14-.41 6.84 6.84 0 0 1-.56-.41h.68c.19 0 .32-.06.37-.27a5.43 5.43 0 0 1 .17-.53s.07 0 .08.05c.08.66.43.92 1.12.71 0 .19-.17.22-.26.29-.43.32-.43.31-.26.84.03.1.06.19.1.36ZM9.42 13.6c.17.65.48 1 1.24.74v.11c-.17.12-.32.25-.5.36a.26.26 0 0 0-.13.38c.08.19.13.38.22.66a4.28 4.28 0 0 1-.44-.32.4.4 0 0 0-.65 0c-.11.1-.25.18-.43.31l.12-.41C9 15 9 15 8.56 14.65l-.35-.26h.7c.19 0 .29 0 .33-.23s.12-.38.18-.56ZM4 13.6c.17.65.47 1 1.25.72v.12a3.19 3.19 0 0 1-.47.35.3.3 0 0 0-.14.44 6.24 6.24 0 0 1 .21.62c-.23-.16-.4-.27-.56-.4a.26.26 0 0 0-.4 0 6 6 0 0 1-.51.37v-.22c.19-.63.19-.63-.36-1l-.18-.16h.68c.2 0 .29-.05.33-.23s.15-.43.15-.61ZM7.5 18.07c-.5-.54-1-.52-1.45.09v-.09c.07-.19.12-.4.2-.59a.26.26 0 0 0-.12-.38 7.12 7.12 0 0 1-.58-.42 4.7 4.7 0 0 1 .67 0c.24 0 .33-.08.38-.3a4.91 4.91 0 0 1 .17-.5c.09 0 .09.07.1.12.23.66.23.66 1 .67H8c-.25.19-.42.32-.6.44s-.18.17-.11.33.14.43.21.63ZM12.08 15.85l.11.06c.09.65.42 1 1.15.72v.11a5.48 5.48 0 0 1-.49.35.29.29 0 0 0-.13.42c.07.18.12.37.19.57h-.06c-.25-.13-.44-.46-.69-.43s-.47.28-.7.44v-.06c.34-.59.21-1-.45-1.27 0-.06 0-.07.06-.07.58.1 1.03-.06 1.01-.84ZM12.86 13.59c-.47-.66-.95-.61-1.45-.1a5.84 5.84 0 0 1 .2-.59.28.28 0 0 0-.13-.39c-.17-.1-.33-.23-.58-.41h.71a.26.26 0 0 0 .33-.23c0-.19.12-.38.18-.57h.07c.09.66.44.94 1.15.72v.1a5.66 5.66 0 0 1-.47.34.3.3 0 0 0-.14.44 4.72 4.72 0 0 1 .18.53ZM8 12.17c-.75.26-.86.72-.48 1.38-.51-.59-1-.59-1.44 0a.48.48 0 0 1 0-.12c.06-.27.3-.54.19-.78s-.4-.33-.7-.56a4.59 4.59 0 0 1 .66 0c.24 0 .33-.08.38-.3s.11-.33.18-.54a.78.78 0 0 1 .18.44.42.42 0 0 0 .55.39 3.09 3.09 0 0 1 .43 0ZM2.11 13.49a.9.9 0 0 0-1.49 0c.07-.2.12-.4.2-.59a.26.26 0 0 0-.13-.38c-.17-.1-.32-.24-.57-.42h.67a.29.29 0 0 0 .37-.26 4.68 4.68 0 0 1 .17-.53c.1 0 .09.07.11.12.23.66.23.66 1 .67h.23c-.26.19-.42.32-.61.44a.24.24 0 0 0-.11.33c.05.2.05.41.16.62ZM2.87 9.88l.06-.07c.62.1 1.07-.05 1.07-.88a1.18 1.18 0 0 1 .27.61c.06.22.16.3.38.27s.38 0 .68 0c-.24.17-.4.3-.57.41a.28.28 0 0 0-.13.41c.07.18.12.38.19.57h-.06c-.47-.44-.93-.58-1.37.07v-.11c.28-.6.15-1.04-.52-1.28ZM10.22 11.27c-.53-.49-1-.68-1.43 0 0-.07-.07-.08-.06-.1 0-.27.29-.55.19-.78s-.41-.35-.63-.52h.06C9 10 9.38 9.69 9.4 9c.07 0 .1 0 .1.07.08.66.44.92 1.17.69a1.45 1.45 0 0 1-.53.46c-.16.11-.22.22-.13.41s.12.37.21.64ZM13.35 7.52c-.24.26-.62.34-.67.6s.13.52.21.8h-.05c-.47-.45-.93-.58-1.37.07 0-.08-.05-.1-.05-.11.34-.59.22-1-.46-1.28 0 0 .06-.07.07-.06.62.09 1.07-.07 1.05-.9a1.27 1.27 0 0 1 .27.63c.06.21.16.29.38.26s.38-.01.62-.01ZM6 9c.39-.68.25-1.12-.45-1.38.06 0 .08-.07.1-.07.65.14 1-.12 1-.82.07 0 .09 0 .1.07.1.24.07.6.29.71a2.12 2.12 0 0 0 .85 0 1.67 1.67 0 0 1-.5.41.29.29 0 0 0-.14.41 5.62 5.62 0 0 1 .19.58h-.02A.82.82 0 0 0 6 9ZM2.11 8.91a.89.89 0 0 0-1.49 0c.07-.2.12-.4.2-.59a.28.28 0 0 0-.12-.39 6.67 6.67 0 0 1-.58-.41h.66c.19 0 .34-.07.39-.29s.11-.34.2-.6A2.56 2.56 0 0 1 1.5 7c.05.42.28.56.68.48a3 3 0 0 1 .43 0c-.25.22-.41.36-.61.52a.24.24 0 0 0-.12.33c.12.16.12.37.23.58ZM13.71 9.81c.63.1 1.08-.06 1.08-.83.08 0 .11.06.11.08.08.66.43.92 1.16.69a1.52 1.52 0 0 1-.52.46.29.29 0 0 0-.14.41c.08.18.13.38.22.65a5.78 5.78 0 0 1-.57-.41.26.26 0 0 0-.4 0 5.6 5.6 0 0 1-.49.36v-.06c.29-.53.26-1-.37-1.24-.07-.02-.12-.05-.08-.11ZM14.87 4.44c.09.26.13.61.31.74s.54 0 .85.1a5.62 5.62 0 0 1-.5.35.29.29 0 0 0-.13.37 5.62 5.62 0 0 1 .19.58h-.08c-.45-.47-.91-.54-1.32 0l-.07-.07c.3-.59.27-1.06-.48-1.28l.09-.08c.64.11 1.06-.08 1-.86ZM8.25 5.19c.74.21 1.12-.06 1.16-.86.21.35.16.74.39.86s.53 0 .83.09a3.82 3.82 0 0 1-.48.34.31.31 0 0 0-.14.44 3 3 0 0 1 .17.51c0 .06 0 .06 0 0-.24-.13-.43-.46-.69-.43s-.46.29-.74.49c.08-.26.13-.46.21-.65a.28.28 0 0 0-.12-.39 5.88 5.88 0 0 1-.51-.36ZM4 4.44h.06c.1.65.43 1 1.14.74a.58.58 0 0 1 0 .12c-.62.29-.77.72-.38 1.37-.52-.59-1-.6-1.44 0v-.11c.33-.59.22-1-.51-1.28l.09-.06a3 3 0 0 1 .52 0c.28 0 .4-.08.45-.34A3 3 0 0 1 4 4.44ZM11.41 4.33c.06-.19.11-.38.19-.57a.3.3 0 0 0-.15-.43 4.92 4.92 0 0 1-.54-.39h.7a.26.26 0 0 0 .33-.23 5.22 5.22 0 0 1 .18-.56c.08 0 .08.05.1.09.24.68.24.68 1 .7h.12a.15.15 0 0 1 0 .07c-.2.19-.57.27-.62.53s.14.5.22.76h-.06a.85.85 0 0 0-1.47.03ZM7.51 4.38A.88.88 0 0 0 6 4.33c.06-.19.11-.38.18-.57a.29.29 0 0 0-.14-.43 4.92 4.92 0 0 1-.54-.39h.69c.2 0 .29 0 .33-.23s.12-.38.19-.57h.07c.13.24.08.61.32.73a2.07 2.07 0 0 0 .79 0s0 .08 0 .08c-.6.35-.77.77-.38 1.43ZM2.08 4.42c-.48-.64-1-.61-1.46-.09a5.27 5.27 0 0 1 .19-.56.3.3 0 0 0-.15-.44c-.16-.09-.3-.22-.54-.39h.7c.2 0 .29 0 .33-.23s.12-.38.18-.56c.09 0 .09.05.1.09.24.68.24.68 1 .7h.13V3c-.2.2-.56.28-.61.54s.13.5.21.76Z" class="cls-6"/><path d="M13.7.66c.28 0 .63.07.82-.06s.21-.49.32-.78A.76.76 0 0 1 15 .2a.47.47 0 0 0 .64.45 2.29 2.29 0 0 1 .37 0v.06c-.59.3-.83.71-.36 1.32h-.13c-.24-.13-.43-.45-.69-.42s-.45.29-.68.45v-.05c.29-.58.27-1.06-.51-1.29ZM8.71 2c.07-.2.12-.4.2-.59s.05-.29-.13-.39-.32-.19-.57-.37h.69A.28.28 0 0 0 9.25.4c0-.18.11-.36.18-.58a1.22 1.22 0 0 1 .23.56c.05.2.14.3.36.27s.4 0 .68 0a4.91 4.91 0 0 1-.55.39.3.3 0 0 0-.13.44c.07.17.12.36.18.54h-.07a.79.79 0 0 0-1.39.11ZM2.88.69h.06c.27 0 .62.11.81-.06S3.94.11 4-.18a2 2 0 0 1 .25.62.24.24 0 0 0 .28.21h.73a5.22 5.22 0 0 1-.42.35c-.28.14-.31.32-.18.59A2.83 2.83 0 0 1 4.8 2s-.06 0-.06 0c-.47-.48-.93-.53-1.39.11v-.1c.06-.2.12-.4.2-.6a.27.27 0 0 0-.13-.38C3.22 1 3.06.82 2.88.69Z" class="cls-7"/></g></g></svg>